<svg id="Camada_1" data-name="Camada 1" xmlns="http://www.w3.org/2000/svg" viewBox="0 0 197.98 197.98"><defs><style>.cls-1{fill:#fff;}</style></defs><path d="M133.57,157.13,61.24,67.37v89.76H45.1l32.64,32.64a31.49,31.49,0,0,0,44.52,0l32.64-32.64H133.57Z" transform="translate(-1.01 -1.01)"/><path d="M10.23,77.74a31.49,31.49,0,0,0,0,44.52l31.42,31.42V46.32Z" transform="translate(-1.01 -1.01)"/><path d="M189.77,77.74,158.35,46.32v93.44l-19.8-24.16.21-72.73H154.9L122.26,10.23a31.49,31.49,0,0,0-44.52,0L45.1,42.87h21l72.62,89.91,18.05,22.44,33-33A31.49,31.49,0,0,0,189.77,77.74Z" transform="translate(-1.01 -1.01)"/><polygon class="cls-1" points="65.13 41.86 44.08 41.86 40.64 45.31 40.64 152.67 44.08 156.11 60.23 156.11 60.23 66.36 132.56 156.11 137.74 156.11 153.89 156.11 155.8 154.2 137.74 131.76 65.13 41.86"/><polygon class="cls-1" points="137.54 114.58 157.34 138.74 157.34 45.31 153.89 41.86 137.74 41.86 137.54 114.58"/></svg>